# xmcd
#
# Track frame offsets: 
#        150
#        16251
#        36691
#        51435
#        63549
#        78226
#        89738
#        100538
#        109848
#        124766
#        141819
#        150968
#        159271
#        167836
#        181772
#        192389
#        204849
#        218683
#        234095
#
# Disc length: 3290 seconds
#
# Revision: 0
# Processed by: cddbd v1.5.2PL0 Copyright (c) Steve Scherf et al.
# Submitted via: ExactAudioCopyFreeDBPlugin 1.0
#
DISCID=f50cd813
DTITLE=Foghorn Stringband - Rock Island Grange
DYEAR=2018
DGENRE=Old-Time
TTITLE0=Reuben's Train
TTITLE1=Rose in the Mountain - Tennessee Girls
TTITLE2=Pretty Fair Miss Out in the Garden
TTITLE3=Grigsby's Hornpipe
TTITLE4=The Violet and the Rose
TTITLE5=Lonesome Homesick Blues
TTITLE6=Natural Bridge Blues
TTITLE7=Ain't Got Time
TTITLE8=Banks of Old Tennessee - Kennesaw Mountain Rag
TTITLE9=Only the Lonely
TTITLE10=Jake's Got the Bellyache
TTITLE11=Mon Vieux Wagon
TTITLE12=Ridin' in an Old Model T
TTITLE13=Lonesome Valley
TTITLE14=Train on the Island
TTITLE15=Going Home
TTITLE16=Give Me the Roses
TTITLE17=Rose Connolly
TTITLE18=The Rose Waltz
EXTD=
EXTT0=
EXTT1=
EXTT2=
EXTT3=
EXTT4=
EXTT5=
EXTT6=
EXTT7=
EXTT8=
EXTT9=
EXTT10=
EXTT11=
EXTT12=
EXTT13=
EXTT14=
EXTT15=
EXTT16=
EXTT17=
EXTT18=
PLAYORDER=
